# xmcd CD database file
#
# Track frame offsets:
#	150
#	21037
#	41662
#	62475
#	82087
#	107512
#	131512
#	157425
#	183412
#	212775
#	235350
#	256827
#	274950
#	297600
#
# Disc length: 4294 seconds
#
# Revision: 15
# Processed by: cddbd v1.5.1PL0 Copyright (c) Steve Scherf et al.
# Submitted via: CDex 1.51
#
DISCID=d410c40e
DTITLE=ASKA - ASKA the BEST
DYEAR=1999
DGENRE=JPop
TTITLE0=MY MR. LONELY HEART
TTITLE1=MIDNIGHT 2 CALL
TTITLE2=伝わりますか
TTITLE3=はじまりはいつも雨
TTITLE4=君が愛を語れ
TTITLE5=けれど空は青 -close friend-
TTITLE6=LOVE IS ALIVE
TTITLE7=晴天を誉めるなら夕暮れを待て
TTITLE8=月が近づけば少しはましだろう
TTITLE9=着地点
TTITLE10=ID
TTITLE11=同じ時代を
TTITLE12=GIRL
TTITLE13=止まった時計 (new version)
EXTD=YEAR: 1999
EXTT0=
EXTT1=
EXTT2=
EXTT3=
EXTT4=
EXTT5=
EXTT6=
EXTT7=
EXTT8=
EXTT9=
EXTT10=
EXTT11=
EXTT12=
EXTT13=
PLAYORDER=
